/* XPM */
static char *result[] = {
/* columns rows colors chars-per-pixel */
"64 64 6 1 ",
"  c black",
". c #2D0006",
"X c #EAC14F",
"o c #90C7F2",
"O c white",
"+ c None",
/* pixels */
"++++++++++++++++++++++++++++++++++++++++++++++++++++++++++++++++",
"++++++++++++++++++++++++++++++++++++++++++++++++++++++++++++++++",
"++++++++++++++++++++++++++++++++++++++++++++++++++++++++++++++++",
"++++++++++++++++++++++++++++++++++++++++++++++++++++++++++++++++",
"+++++++++++++++++++++++++++++++++++++++++++++++++++++++     ++++",
"+++++++++++++++++++++++++++++++++++++++++++++++++++++  ooo  ++++",
"++++++++++++++++++++++++++++++++++++++++++++++++++++ oooo O ++++",
"+++++++++++++++++++++++++++++++++++++++++++++++++++ oo   OO ++++",
"++++++++++++++++++++++++++++++++++++++++++++++++++ oo O  OO ++++",
"+++++++++++++++++++++++++++++++++++++++++++++++++ oo O o O +++++",
"++++++++++++++++++++++++++++++++++++++++++++++++ oo O o OO +++++",
"+++++++++++++++++++++++++++++++++++++++++++++++ oo O o OO ++++++",
"++++++++++++++++++++++++++++++++++++++++++++++ oo O o OO +++++++",
"+++++++++++++++++++++++++++++++++++++++++++++ oo O o OO ++++++++",
"++++++++++++++++++++++++++++++++++++++++++++ oo O o OO +++++++++",
"+++++++++++++++++++++++++++++++++++++++++++ oo O o OO ++++++++++",
"++++++++++++++++++++++++++++++++++++++++++ oo O o OO +++++++++++",
"+++++++++++++++++++++++++++++++++++++++++ oo O o OO ++++++++++++",
"++++++++++++++++++++++++++++++++++++++++ oo O o OO +++++++++++++",
"+++++++++++++++++++++++++++++++++++++++ oo O o OO ++++++++++++++",
"++++++++++++++++++++++++++++++++++++++ oo O o OO +++++++++++++++",
"+++++++++++++++++++++++++++++++++++++ oo O o OO ++++++++++++++++",
"++++++++++++++++++++++++++++++++++++ oo O o OO +++++++++++++++++",
"+++++++++++++++++++++++++++++++++++ oo O o OO ++++++++++++++++++",
"++++++++++++++++++++++++++++++++++ oo O o OO +++++++++++++++++++",
"+++++++++++++++++++++++++++++++++ oo O o OO ++++++++++++++++++++",
"++++++++++++++++++++++++++++++++ oo O o OO +++++++++++++++++++++",
"+++++++++++++++++++++++++++++++ oo O o OO ++++++++++++++++++++++",
"++++++++++++++++++++++++++++++ oo O o OO +++++++++++++++++++++++",
"+++++++++++++++++++++++++++++ oo O o OO ++++++++++++++++++++++++",
"++++++++++++++++++++++++++++ OO X o OO +++++++++++++++++++++++++",
"+++++++++++++++++++++++++++ oo O O OO ++++++++++++++++++++++++++",
"++++++++++++++++++++++++++ oo O o OO +++++++++++++++++++++++++++",
"+++++++++++++++++++++++++ OO X o XO ++++++++++++++++++++++++++++",
"++++++++++++++++++++++++ OO X O OX +++++++++++++++++++++++++++++",
"+++++++++++++++++++++++ OO X O OO ++++++++++++++++++++++++++++++",
"++++++++++++++   +++++ oo O O XO +++++++++++++++++++++++++++++++",
"+++++++++++++ oo ++++ oo O o XX ++++++++++++++++++++++++++++++++",
"++++++++++++ ooo +++ oo O o XX +++++++++++++++++++++++++++++++++",
"++++++++++++ oo +++ oo O o OX ++++++++++++++++++++++++++++++++++",
"++++++++++++ oo ++ oo O o OO +++++++++++++++++++++++++++++++++++",
"++++++++++++ oo + oo O o OO ++++++++++++++++++++++++++++++++++++",
"++++++++++++ oo  oo O o OO +++++++++++++++++++++++++++++++++++++",
"++++++++++++ oo oo O o OO ++++++++++++++++++++++++++++++++++++++",
"++++++++++++ oo     o OO +++++++++++++++++++++++++++++++++++++++",
"++++++++++++ oooooo  OO ++++++++++++++++++++++++++++++++++++++++",
"+++++++++++++ ooXXo OO +++++++++++++++++++++++++++++++++++++++++",
"+++++++++++++ ooXXo O +++   ++++++++++++++++++++++++++++++++++++",
"+++++++++++++  oooo      oo ++++++++++++++++++++++++++++++++++++",
"++++++++++++ .  ooooooooooo ++++++++++++++++++++++++++++++++++++",
"+++++++++++ ...   oooooooo +++++++++++++++++++++++++++++++++++++",
"++++++++++ ... +++        ++++++++++++++++++++++++++++++++++++++",
"+++++++++ ... ++++++++++++++++++++++++++++++++++++++++++++++++++",
"++++++++ ... +++++++++++++++++++++++++++++++++++++++++++++++++++",
"+++++++ ... ++++++++++++++++++++++++++++++++++++++++++++++++++++",
"++++++ ... +++++++++++++++++++++++++++++++++++++++++++++++++++++",
"++++   .. ++++++++++++++++++++++++++++++++++++++++++++++++++++++",
"+++ oo   +++++++++++++++++++++++++++++++++++++++++++++++++++++++",
"+++ ooo ++++++++++++++++++++++++++++++++++++++++++++++++++++++++",
"+++ ooo ++++++++++++++++++++++++++++++++++++++++++++++++++++++++",
"+++    +++++++++++++++++++++++++++++++++++++++++++++++++++++++++",
"++++++++++++++++++++++++++++++++++++++++++++++++++++++++++++++++",
"++++++++++++++++++++++++++++++++++++++++++++++++++++++++++++++++",
"++++++++++++++++++++++++++++++++++++++++++++++++++++++++++++++++"
};
